<svg version="1.2" xmlns="http://www.w3.org/2000/svg" viewBox="0 0 91 91" width="91" height="91"><style>.a{fill:#f9f9f9;stroke:#777;paint-order:stroke fill markers;stroke-linejoin:round;stroke-width:6}.b{fill:#777}</style><circle class="a" cx="45.7" cy="45.6" r="42.2"/><path class="b" d="m62.7 22.8v38.8c0 1.9-1.6 3.5-3.6 3.5-2 0-3.6-1.6-3.6-3.5v-38.8c0-2 1.6-3.6 3.6-3.6 2 0 3.6 1.6 3.6 3.6zm-13.4 12.8v26c0 1.9-1.6 3.5-3.6 3.5-2 0-3.6-1.6-3.6-3.5v-26c0-2 1.6-3.6 3.6-3.6 2 0 3.6 1.6 3.6 3.6zm-13.5 12.8v13.2c0 1.9-1.6 3.5-3.6 3.5-2 0-3.6-1.6-3.6-3.5v-13.2c0-2 1.6-3.6 3.6-3.6 2 0 3.6 1.6 3.6 3.6z"/></svg>