<svg version="1.2" xmlns="http://www.w3.org/2000/svg" viewBox="0 0 91 91" width="91" height="91"><style>.a{fill:#f9f9f9;stroke:#777;paint-order:stroke fill markers;stroke-linejoin:round;stroke-width:6}.b{fill:#777}</style><circle class="a" cx="45.6" cy="45.6" r="42.2"/><path class="b" d="m64.4 55.6q0 0.3-0.1 0.5c-0.6 3.9-4.5 7-9.3 7h-0.1c-5.1-0.1-9.3-3.7-9.3-8.1 0-4.4 4.2-8 9.4-8h0.1c1.9 0 3.7 0.6 5.2 1.5l0.2-13.6-22.9 4.9-0.2 21.1c0 4.4-4.2 7.9-9.3 7.9h-0.1c-5.2 0-9.4-3.6-9.4-8.1 0.1-4.4 4.3-7.9 9.4-7.9h0.1c2 0 3.8 0.5 5.3 1.4l0.2-24.1c0-1 0.7-1.8 1.6-2l27-5.8c0.6-0.1 1.2 0 1.7 0.4 0.5 0.4 0.7 1 0.7 1.6zm-36.3 9.2c-2.9 0-5.3-1.8-5.3-4 0-2.1 2.4-3.9 5.3-3.9 2.9 0.1 5.3 1.9 5.3 4 0 2.1-2.4 3.9-5.3 3.9zm9.6-28.1v-4.9l22.9-4.9-0.1 4.9zm17.4 22.3c-2.9 0-5.3-1.8-5.3-3.9 0-2.2 2.4-3.9 5.3-3.9 2.9 0 5.3 1.8 5.3 4 0 2.1-2.4 3.8-5.3 3.8z"/></svg>