<svg version="1.2" xmlns="http://www.w3.org/2000/svg" viewBox="0 0 389 416" width="389" height="416"><style>.a{fill:#fff}</style><path fill-rule="evenodd" class="a" d="m362.3 249.5h-31.3c-3 11.4-7.2 22.3-12.5 32.4l22 23.6c10.1 10.8 10.1 28.4 0 39.3l-18.4 19.6c-10.1 10.9-26.5 10.9-36.7 0l-21.9-23.5c-9.5 5.7-19.7 10.1-30.3 13.4v33.5c0 15.3-11.6 27.6-25.8 27.6h-25.9c-14.2 0-25.8-12.3-25.8-27.6v-33.5c-11-3.4-21.5-8.1-31.3-14l-22.5 24.1c-10.2 10.9-26.6 10.9-36.7 0l-18.4-19.6c-10.1-10.9-10.1-28.5 0-39.3l23-24.6c-5.1-9.9-9-20.4-11.9-31.4h-31.3c-14.2 0-25.8-12.4-25.8-27.6v-27.7c0-15.3 11.6-27.6 25.8-27.6h31.3c3-11.5 7.2-22.3 12.5-32.5l-23.6-25.2c-10.1-10.9-10.1-28.5 0-39.3l18.4-19.7c10.1-10.8 26.5-10.8 36.7 0l23.5 25.3c9.5-5.7 19.7-10.2 30.3-13.4v-33.5c0-15.3 11.6-27.7 25.8-27.7h25.9c14.2 0 25.8 12.4 25.8 27.7v33.5c10.3 3.1 20.1 7.3 29.3 12.7l22.9-24.6c10.2-10.8 26.6-10.8 36.7 0l18.4 19.7c10.1 10.8 10.1 28.4 0 39.3l-22.6 24.1c5.6 10.5 10 21.7 13.1 33.6h31.3c14.3 0 25.8 12.3 25.8 27.6v27.7c0 15.2-11.5 27.6-25.8 27.6zm-245.3-41.5c0 45.9 34.7 83 77.5 83 42.7 0 77.4-37.1 77.4-83 0-45.8-34.7-82.9-77.4-82.9-42.8 0-77.5 37.1-77.5 82.9zm77.5-41.4c21.4 0 38.7 18.5 38.7 41.4 0 22.9-17.3 41.5-38.7 41.5-21.4 0-38.8-18.6-38.8-41.5 0-22.9 17.4-41.4 38.8-41.4z"/></svg>