<svg version="1.2" xmlns="http://www.w3.org/2000/svg" viewBox="0 0 50 47" width="50" height="47"><style>.a{fill:#777}</style><path class="a" d="m39.3 47.1q-0.7 0-1.2-0.4l-12.7-8.2-12.7 8.2c-0.7 0.5-1.7 0.5-2.4 0-0.8-0.6-1.1-1.5-0.8-2.4l3.9-14.1-11.8-10c-0.7-0.6-1-1.5-0.7-2.3 0.3-0.9 1-1.5 1.9-1.5l14.2-1.1 6.4-14c0.4-0.8 1.1-1.3 2-1.3 0.8 0 1.6 0.5 2 1.3l6.4 14 14.2 1.1c0.9 0 1.6 0.6 1.9 1.5 0.3 0.8 0 1.7-0.7 2.3l-11.8 10 3.9 14.1c0.3 0.9 0 1.8-0.8 2.4-0.3 0.2-0.8 0.4-1.2 0.4zm-13.9-13.4q0.6 0 1.2 0.4l9 5.9-2.8-9.9c-0.2-0.9 0.1-1.7 0.7-2.3l8.9-7.5-10.2-0.7c-0.8-0.1-1.5-0.6-1.8-1.3l-5-10.9-5 10.9c-0.3 0.7-1 1.2-1.8 1.3l-10.2 0.7 8.9 7.5c0.6 0.6 0.9 1.4 0.7 2.3l-2.8 9.9 9-5.9q0.6-0.4 1.2-0.4z"/></svg>