<svg version="1.2" xmlns="http://www.w3.org/2000/svg" viewBox="0 0 39 38" width="39" height="38"><style></style><path fill-rule="evenodd" d="m0.2 12.6c0-1.9 1.5-3.5 3.4-3.5h3.9q0.1-0.3 0.3-0.6l4.1-7.2c0.8-1.3 2.4-1.7 3.8-1 1.3 0.8 1.7 2.5 1 3.8l-2.9 5h11.3l-2.9-5c-0.7-1.3-0.3-3 1-3.8 1.4-0.7 3-0.3 3.8 1l4.1 7.2q0.2 0.3 0.3 0.6h3.9c1.9 0 3.4 1.6 3.4 3.5 0 1.9-1.5 3.4-3.4 3.4h-31.7c-1.9 0-3.4-1.5-3.4-3.4zm34.5 25.4h-30.5l-1.2-20.6h32.9zm-16.6-13.8v8.3c0 0.7 0.6 1.4 1.3 1.4 0.8 0 1.4-0.7 1.4-1.4v-8.3c0-0.7-0.6-1.4-1.4-1.4-0.7 0-1.3 0.7-1.3 1.4zm8.2 0v8.3c0 0.7 0.6 1.4 1.4 1.4 0.8 0 1.4-0.7 1.4-1.4v-8.3c0-0.7-0.6-1.4-1.4-1.4-0.8 0-1.4 0.7-1.4 1.4zm-16.5 0v8.3c0 0.7 0.6 1.4 1.4 1.4 0.7 0 1.4-0.7 1.4-1.4v-8.3c0-0.7-0.7-1.4-1.4-1.4-0.8 0-1.4 0.7-1.4 1.4z"/></svg>