<svg version="1.2" xmlns="http://www.w3.org/2000/svg" viewBox="0 0 52 48" width="52" height="48"><style></style><path  d="m47.7 26.7c-10.6 11.9-20.1 20.4-20.2 20.4-0.4 0.4-1 0.6-1.5 0.6-0.6 0-1.1-0.2-1.5-0.6-0.1 0-9.6-8.5-20.3-20.4-4.4-4.9-5.5-11.2-3-16.9 2.5-5.5 7.7-9.1 13.3-9.1 5.7 0 9.4 2.6 11.5 5.2 2.1-2.6 5.8-5.2 11.4-5.2 5.7 0 10.9 3.6 13.3 9.1 2.6 5.7 1.5 12-3 16.9zm-3.4-3.1c-8 8.9-15.3 15.9-18.3 18.7-3.1-2.8-10.4-9.8-18.3-18.7-3.3-3.5-4.1-7.9-2.3-12 1.7-3.7 5.4-6.3 9.1-6.3 7.4 0 9.1 5.5 9.3 6.1 0.2 1.1 1.1 1.8 2.2 1.8 1 0 2-0.7 2.2-1.8 0.1-0.2 1.6-6.1 9.2-6.1 3.8 0 7.4 2.6 9.1 6.3 1.8 4.1 1 8.5-2.2 12zm0.3-7c0.1 1.2-0.9 2.3-2.1 2.4q-0.1 0-0.2 0c-1.2 0-2.2-0.9-2.3-2.1-0.2-4.1-3.1-4.5-3.2-4.5-1.3-0.2-2.1-1.4-2-2.6 0.2-1.3 1.4-2.2 2.6-2 2.3 0.3 6.8 2.6 7.2 8.8zm-3.4 4.1c0.4 0.4 0.6 1 0.6 1.6 0 0.6-0.2 1.2-0.6 1.6-0.5 0.4-1.1 0.7-1.7 0.7-0.6 0-1.2-0.3-1.6-0.7-0.4-0.4-0.7-1-0.7-1.6 0-0.6 0.3-1.2 0.7-1.6 0.4-0.5 1-0.7 1.6-0.7 0.6 0 1.2 0.2 1.7 0.7z"/></svg>