<svg version="1.2" xmlns="http://www.w3.org/2000/svg" viewBox="0 0 40 52" width="40" height="52"><style></style><path  d="m39.5 4.8v42.5c0 2.5-1.7 4.1-4.3 4.1h-30.5c-2.6 0-4.3-1.6-4.3-4.1v-42.5c0-2.5 1.7-4.1 4.3-4.1h30.5c2.6 0 4.3 1.6 4.3 4.1zm-3.3 42.5c0 0.4 0 0.8-1 0.8h-30.5c-1 0-1-0.4-1-0.8v-42.5c0-0.4 0-0.8 1-0.8h30.5c1 0 1 0.4 1 0.8zm-2.1-39.5v33.1c0 0.7-0.5 1.1-1.1 1.1h-26.1c-0.6 0-1.1-0.4-1.1-1.1v-33.1c0-0.6 0.5-1.1 1.1-1.1h26.1c0.6 0 1.1 0.5 1.1 1.1zm-2.2 32h-23.9v-30.9h23.9zm-10.6 4c0.3 0.3 0.5 0.8 0.5 1.3 0 0.5-0.2 1-0.5 1.4-0.4 0.3-0.9 0.6-1.4 0.6-0.5 0-1-0.3-1.3-0.6-0.4-0.4-0.6-0.9-0.6-1.4 0-0.5 0.2-1 0.6-1.3 0.7-0.7 2-0.7 2.7 0z"/></svg>