<svg version="1.2" xmlns="http://www.w3.org/2000/svg" viewBox="0 0 55 44" width="55" height="44"><style></style><path  d="m3.5 43.3q-0.8 0-1.6-0.5c-1.5-0.9-2-2.8-1.1-4.3l7.3-12c0.5-0.9 1.5-1.4 2.5-1.5 1.1 0 2.1 0.4 2.7 1.3l3 4 6.4-10.8c0.5-0.9 1.5-1.5 2.5-1.5 1.1-0.1 2.1 0.4 2.7 1.2l5.6 7.4 14.9-24.4c0.9-1.5 2.8-1.9 4.3-1 1.5 0.9 2 2.8 1 4.3l-17.2 28.3c-0.6 0.9-1.5 1.5-2.6 1.5-1 0.1-2-0.4-2.7-1.2l-5.5-7.3-6.5 10.8c-0.5 0.9-1.5 1.5-2.5 1.5-1.1 0.1-2.1-0.4-2.7-1.3l-3-4-4.8 8c-0.6 0.9-1.6 1.5-2.7 1.5z"/></svg>