<svg version="1.2" xmlns="http://www.w3.org/2000/svg" viewBox="0 0 28 38" width="28" height="38"><style></style><path fill-rule="evenodd" d="m14 0.8c5.1 0 9.3 3.6 9.3 8.1v9.4h1.2c1.9 0 3.5 1.5 3.5 3.5v12.8c0 1.9-1.6 3.5-3.5 3.5h-21c-2 0-3.5-1.6-3.5-3.5v-12.8c0-2 1.5-3.5 3.5-3.5h1.1v-9.4c0-4.5 4.2-8.1 9.4-8.1zm-4.7 8.1v8.2q0 0.6 0.3 1.2h8.8q0.2-0.6 0.2-1.2v-8.2c0-1.9-2.1-3.5-4.6-3.5-2.6 0-4.7 1.6-4.7 3.5zm2.3 23.4c0 1.3 1.1 2.3 2.4 2.3 1.3 0 2.3-1 2.3-2.3v-1.8c1.4-0.8 2.3-2.3 2.3-4.1 0-2.5-2.1-4.6-4.6-4.6-2.6 0-4.7 2.1-4.7 4.6 0 1.8 0.9 3.3 2.3 4.1z"/></svg>