<svg version="1.2" xmlns="http://www.w3.org/2000/svg" viewBox="0 0 41 34" width="41" height="34"><style></style><path fill-rule="evenodd" d="m6.9 0.2h26.9c2.3 0 4.1 1.8 4.1 4v17.5q0 0.7-0.3 1.4h0.3v2.6h-4.1v-21.5h-26.9v21.5h-4v-2.6h0.2q-0.2-0.7-0.2-1.4v-17.5c0-2.2 1.8-4 4-4zm-4 28.2h35c1.4 0 2.6 1.2 2.6 2.7 0 1.5-2.5 2.7-4 2.7h-32.3c-1.5 0-4-1.2-4-2.7 0-1.5 1.2-2.7 2.7-2.7zm12.1 3.4c0 0.4 0.6 0.7 1.3 0.7h8.1c0.7 0 1.3-0.3 1.3-0.7 0-0.4-0.6-0.7-1.3-0.7h-8.1c-0.7 0-1.3 0.3-1.3 0.7zm-3.7-15.8l1.9-1.9c0.6-0.6 1.4-0.6 1.9 0l2.5 2.5 8-8.1c0.5-0.5 1.4-0.5 1.9 0l1.9 1.9c0.5 0.5 0.5 1.4 0 1.9l-10.4 10.5c-0.5 0.4-1.2 0.5-1.7 0.2-0.4 0.1-0.9 0-1.2-0.4l-4.8-4.7c-0.5-0.6-0.5-1.4 0-1.9z"/></svg>