<svg version="1.2" xmlns="http://www.w3.org/2000/svg" viewBox="0 0 20 31" width="20" height="31"><style>.a{fill:#ececec}</style><path fill-rule="evenodd" class="a" d="m2.7 0.8h14.9c1.1 0 1.9 0.9 1.9 1.9v26.1c0 1-0.8 1.9-1.9 1.9h-14.9c-1 0-1.8-0.9-1.8-1.9v-26.1c0-1 0.8-1.9 1.8-1.9zm2.8 2.4c0 0.2 0.2 0.4 0.5 0.4h8.4c0.2 0 0.5-0.2 0.5-0.4 0-0.3-0.3-0.5-0.5-0.5h-8.4c-0.3 0-0.5 0.2-0.5 0.5zm-2.8 23.7h14.9v-21.4h-14.9zm6.6 1.9c0 0.5 0.4 0.9 0.9 0.9 0.5 0 0.9-0.4 0.9-0.9 0-0.6-0.4-1-0.9-1-0.5 0-0.9 0.4-0.9 1z"/></svg>