<svg version="1.2" xmlns="http://www.w3.org/2000/svg" viewBox="0 0 26 21" width="26" height="21"><style>.a{fill:#ececec}</style><path fill-rule="evenodd" class="a" d="m2.7 0.2h20c1.4 0 2.5 1.1 2.5 2.5v15c0 1.4-1.1 2.5-2.5 2.5h-20c-1.3 0-2.5-1.1-2.5-2.5v-15c0-1.4 1.2-2.5 2.5-2.5zm11.7 10c0 0.5 0.4 0.9 0.8 0.9h7.5c0.5 0 0.8-0.4 0.8-0.9 0-0.4-0.3-0.8-0.8-0.8h-7.5c-0.4 0-0.8 0.4-0.8 0.8zm0-3.3c0 0.4 0.4 0.8 0.8 0.8h7.5c0.5 0 0.8-0.4 0.8-0.8 0-0.5-0.3-0.8-0.8-0.8h-7.5c-0.4 0-0.8 0.3-0.8 0.8zm0 6.6c0 0.5 0.4 0.9 0.8 0.9h7.5c0.5 0 0.8-0.4 0.8-0.9 0-0.4-0.3-0.8-0.8-0.8h-7.5c-0.4 0-0.8 0.4-0.8 0.8zm-12.5-7.4v8.3c0 0.4 0.4 0.8 0.8 0.8h8.4c0.4 0 0.8-0.4 0.8-0.8v-8.3c0-0.5-0.4-0.9-0.8-0.9h-8.4c-0.4 0-0.8 0.4-0.8 0.9z"/></svg>