<svg version="1.2" xmlns="http://www.w3.org/2000/svg" viewBox="0 0 26 23" width="26" height="23"><style>.a{fill:#ececec}</style><path fill-rule="evenodd" class="a" d="m1.6 0.3h22c0.9 0 1.6 0.7 1.6 1.5v18.9c0 0.9-0.7 1.6-1.6 1.6h-22c-0.9 0-1.6-0.7-1.6-1.6v-18.9c0-0.8 0.7-1.5 1.6-1.5zm0.8 3.9v14.2c0 0.9 0.7 1.6 1.5 1.6h17.4c0.8 0 1.5-0.7 1.5-1.6v-14.2c0-0.9-0.7-1.6-1.5-1.6h-17.4c-0.8 0-1.5 0.7-1.5 1.6zm5.1 0c1.5 0 2.7 1.2 2.7 2.8 0 1.5-1.2 2.7-2.7 2.7-1.5 0-2.8-1.2-2.8-2.7 0-1.6 1.3-2.8 2.8-2.8zm-4.3 14.2l4.7-6.3 3.1 3.9h0.8l5.5-11 4.8 13.4z"/></svg>