<svg version="1.2" xmlns="http://www.w3.org/2000/svg" viewBox="0 0 24 18" width="24" height="18"><style>.a{fill:#ececec}</style><path class="a" d="m0.2 13.3c0 0 3.1 1.5 4.4 1.5 0 0 2.6 0.7 4.2-1.5 0 0 0.4-0.6-0.1-0.9 0 0-5.4-1.6-5-2.5 0 0-0.1-0.5 0.6-0.4 0 0 0.8-0.8 0.4-1 0 0-0.6-0.8-0.1-0.8 0 0 1.2 0.3 1.7 0.4 0 0 0.3-0.1 0-0.3-0.3-0.2-0.8-0.7-0.7-0.8 0 0 0.2-0.4 1-0.1 0 0 0.2 0 0-0.3 0 0-0.6-0.4-0.3-0.7 0 0 0.9-0.6 3.1 2.1 0 0 0.4 0.5 0.5 0 0 0 1.6-6.8 4.2-7.3 0 0 0.9 0.2 1-0.1 0 0 0.7-0.3 1 0 0 0 0.2 0.3 0.5 0.1 0 0 1-0.4 0.7 0.3 0 0-1 0.9-1.4 0.9-0.4 0.1-0.3 0.4 0 0.4 0 0 4.4 0.4 4.4 3.6 0 0 0.3 0.8 1.1 0 0 0 1.2-0.8 1.5-0.8 0 0 0.3-0.2 0.3 0.3 0 0-0.9 1.5-1.8 1.9 0 0-0.5 0.7 0.2 0.6 0 0 0.8-0.2 1.2-0.4 0 0 0.9-0.4 0.5 0.4 0 0-2 1.2-2.4 1.2 0 0-0.3 0.1-0.3 0.4 0 0-0.3 8.3-11.2 8.3 0 0-5.5 0.4-9.1-3.9 0 0-0.7-0.7-0.1-0.6z"/></svg>